<?xml version="1.0" encoding="utf-8"?>
<!-- Generator: Adobe Illustrator 24.0.1, SVG Export Plug-In . SVG Version: 6.00 Build 0)  -->
<svg version="1.1" id="Слой_1" xmlns="http://www.w3.org/2000/svg" xmlns:xlink="http://www.w3.org/1999/xlink" x="0px" y="0px"
	 viewBox="0 0 473.81 455.23" style="enable-background:new 0 0 473.81 455.23;" xml:space="preserve">
<style type="text/css">
	.st0{fill:#0B1F5E;}
</style>
<path class="st0" d="M403.13,241.42c-1.27-1.63-2.55-3.27-3.82-4.9c-1.58-1.23-5.52-3.94-11.08-4.2c-1.57-0.07-4.99-0.19-8.71,1.73
	c-2.69,1.39-4.38,3.24-5.29,4.4c-1.57,3.19-3.93,7.75-7.1,13.03c-6.63,11.05-21.43,35.13-49.74,53.61
	c-9.41,6.14-24.6,14.47-45.48,19.55c-2.83,0.02-7.24-0.4-10.84-3.29c-4.69-3.76-4.27-8.71-5.84-9.36c0-34.85,0-69.71,0-104.56
	c0.21-0.52,0.77-1.75,2.1-2.69c1.73-1.23,3.57-1.11,4.06-1.06c12.16-0.02,24.32-0.04,36.48-0.06c1.09-0.07,6.1-0.49,10.07-4.71
	c3.74-3.98,4.03-8.64,4.06-9.81v-2.7c0-7.66-6.21-13.88-13.88-13.88h-42.9v-47.5c14.2-5.84,24.19-19.8,24.19-36.1v-2.8
	c0-21.55-17.47-39.02-39.02-39.02h-3.76c-21.55,0-39.02,17.47-39.02,39.02v2.8c0,15.75,9.34,29.31,22.77,35.48v48.13h-39.54
	c-7.66,0-13.88,6.21-13.88,13.88v2.7c0,7.66,6.21,13.88,13.88,13.88c11.43,0,22.87,0,34.3,0c0.55,0.05,2.16,0.28,3.57,1.58
	c1.07,0.99,1.51,2.11,1.68,2.66c0,36.17,0,72.34,0,108.5c-0.68,1.75-1.75,3.83-4,5.64c-3.6,2.89-8.01,3.31-10.84,3.29
	c-20.88-5.08-36.08-13.41-45.48-19.55c-28.31-18.48-43.11-42.56-49.74-53.61c-3.17-5.29-5.53-9.84-7.1-13.03
	c-0.9-1.15-2.6-3.01-5.29-4.4c-3.73-1.92-7.15-1.81-8.71-1.73c-5.57,0.26-9.5,2.96-11.08,4.2c-1.27,1.63-2.55,3.27-3.82,4.9
	c-0.61,1.88-1.19,4.44-1.19,7.49c-0.01,6.39,2.51,11.17,3.9,13.42c4.43,8.77,10.1,18.25,17.42,27.87c23.76,31.23,52.83,48.1,72,56.9
	c12.04,5.72,19.95,8.01,25.03,9.03c4.53,0.91,8.98,2.15,13.53,2.95c3.93,0.69,5.48,0.81,7.63,1.96c1.08,0.57,4.25,2.44,7.74,8.77
	c0,6.28,0,12.56,0,18.84c0,9.56,7.86,17.42,17.42,17.42c9.62,0,17.42-7.8,17.42-17.42c0-5.01,0-10.02,0-15.03
	c0.51-1.2,1.1-2.47,1.84-3.81c3.49-6.34,6.66-8.2,7.74-8.77c2.15-1.14,3.7-1.27,7.63-1.96c4.55-0.8,9-2.04,13.53-2.95
	c5.08-1.02,12.99-3.31,25.03-9.03c19.17-8.81,48.24-25.67,72-56.9c7.32-9.62,12.99-19.11,17.42-27.87c1.39-2.24,3.91-7.02,3.9-13.42
	C404.31,245.86,403.73,243.3,403.13,241.42z M250.26,90.18c0,5.92-4.8,10.72-10.72,10.72h-0.1c-5.92,0-10.72-4.8-10.72-10.72v-5.14
	c0-5.92,4.8-10.72,10.72-10.72h0.1c5.92,0,10.72,4.8,10.72,10.72V90.18z"/>
</svg>
