<svg xmlns="http://www.w3.org/2000/svg" xmlns:xlink="http://www.w3.org/1999/xlink" width="27" height="27" viewBox="0 0 27 27"><defs><style>.a{fill:#fff;stroke:#707070;}.b{clip-path:url(#a);}.c{fill:#8c8c9e;}</style><clipPath id="a"><rect class="a" width="27" height="27" transform="translate(925 635)"/></clipPath></defs><g class="b" transform="translate(-925 -635)"><g transform="translate(925 635)"><path class="c" d="M16.682,10.318a.562.562,0,1,0-.8.8,3.374,3.374,0,1,1-4.772,4.772.562.562,0,1,0-.8.8,4.5,4.5,0,1,0,6.363-6.363Z"/><path class="c" d="M14.284,9.077A4.455,4.455,0,0,0,9,13.5a4.4,4.4,0,0,0,.079.784.563.563,0,0,0,.552.465.5.5,0,0,0,.1-.009.563.563,0,0,0,.456-.651,3.262,3.262,0,0,1-.061-.588,3.334,3.334,0,0,1,3.963-3.315.562.562,0,1,0,.2-1.107Z"/><path class="c" d="M26.866,13.136A27.326,27.326,0,0,0,19.5,7.259a.563.563,0,0,0-.516,1,26.435,26.435,0,0,1,6.7,5.24c-1.341,1.452-6.618,6.75-12.181,6.75a12.97,12.97,0,0,1-5.656-1.356.562.562,0,0,0-.488,1.012A14.067,14.067,0,0,0,13.5,21.375c6.931,0,13.107-7.2,13.367-7.512A.562.562,0,0,0,26.866,13.136Z"/><path class="c" d="M17.191,6.273A11.615,11.615,0,0,0,13.5,5.625c-6.931,0-13.107,7.2-13.367,7.512a.562.562,0,0,0-.031.685,20.884,20.884,0,0,0,5.16,4.893.559.559,0,0,0,.779-.159.561.561,0,0,0-.158-.779A20.572,20.572,0,0,1,1.289,13.53C2.584,12.124,7.9,6.75,13.5,6.75a10.53,10.53,0,0,1,3.332.588.555.555,0,0,0,.712-.353A.561.561,0,0,0,17.191,6.273Z"/><path class="c" d="M23.46,3.54a.563.563,0,0,0-.8,0L3.539,22.665a.562.562,0,0,0,.8.8L23.46,4.335A.563.563,0,0,0,23.46,3.54Z"/></g></g></svg>