<?xml version="1.0" encoding="utf-8"?>
<!-- Generator: Adobe Illustrator 24.0.1, SVG Export Plug-In . SVG Version: 6.00 Build 0)  -->
<svg version="1.1" id="Слой_1" xmlns="http://www.w3.org/2000/svg" xmlns:xlink="http://www.w3.org/1999/xlink" x="0px" y="0px"
	 viewBox="0 0 470.71 439.74" style="enable-background:new 0 0 470.71 439.74;" xml:space="preserve">
<style type="text/css">
	.st0{fill:#CD181F;}
</style>
<path class="st0" d="M413.1,203.03h-15.45c-3.54-30.5-15.76-58.34-34.13-81l11.74-11.74c6.8-6.8,6.8-17.83,0-24.63l0,0
	c-6.8-6.8-17.83-6.8-24.63,0l-11.88,11.88c-22.96-18.18-51.09-30.12-81.83-33.24V46.32c0-9.62-7.8-17.42-17.42-17.42
	s-17.42,7.8-17.42,17.42v18.27c-30.48,3.6-58.3,15.87-80.93,34.29l-13.75-13.75c-6.8-6.8-17.83-6.8-24.63,0v0
	c-6.8,6.8-6.8,17.83,0,24.63l13.94,13.94c-17.62,22.35-29.33,49.58-32.78,79.32H63.94c-9.62,0-17.42,7.8-17.42,17.42
	s7.8,17.42,17.42,17.42h19.76c3.17,30.61,15.08,58.63,33.2,81.51l-13.17,13.17c-6.8,6.8-6.8,17.83,0,24.63l0,0
	c6.8,6.8,17.83,6.8,24.63,0l13.03-13.03c22.58,18.31,50.31,30.51,80.68,34.09v17.24c0,9.62,7.8,17.42,17.42,17.42
	s17.42-7.8,17.42-17.42v-16.94c30.63-3.11,58.67-14.97,81.58-33.04l11.16,11.16c6.8,6.8,17.83,6.8,24.63,0v0
	c6.8-6.8,6.8-17.83,0-24.63l-10.97-10.97c18.87-23.18,31.3-51.82,34.55-83.19h15.24c9.62,0,17.42-7.8,17.42-17.42
	S422.72,203.03,413.1,203.03z M340.92,144.62c12.63,16.71,21.17,36.68,24.19,58.41h-79.74c-0.28-0.67-0.58-1.32-0.89-1.97
	L340.92,144.62z M256.9,95.65c22.11,2.89,42.42,11.51,59.38,24.34l-56.76,56.76c-0.86-0.38-1.73-0.74-2.62-1.07V95.65z
	 M222.06,95.92v79.75c-0.99,0.37-1.97,0.78-2.93,1.21l-55.87-55.87C180.01,108.01,200.11,99.13,222.06,95.92z M138.97,145.99
	l55.38,55.38c-0.26,0.55-0.51,1.1-0.74,1.66h-77.8C118.73,181.89,126.89,162.42,138.97,145.99z M139.99,296.28
	c-12.63-16.71-21.17-36.68-24.19-58.41h76.45c0.5,1.51,1.07,3,1.71,4.44L139.99,296.28z M222.06,344.98
	c-21.36-3.13-40.98-11.62-57.44-24.06l53.65-53.65c1.24,0.58,2.5,1.12,3.8,1.6V344.98z M238.98,240.32
	c-10.01,0-18.13-8.12-18.13-18.13c0-10.01,8.12-18.13,18.13-18.13s18.13,8.12,18.13,18.13C257.11,232.21,249,240.32,238.98,240.32z
	 M256.9,345.25v-76.38c1.18-0.44,2.35-0.93,3.48-1.46l54.53,54.53C298.23,334.19,278.42,342.44,256.9,345.25z M339.88,297.63
	l-55.01-55.01c0.69-1.54,1.31-3.13,1.85-4.75h78.4C362.03,260.2,353.08,280.65,339.88,297.63z"/>
</svg>
