<svg xmlns="http://www.w3.org/2000/svg" xmlns:xlink="http://www.w3.org/1999/xlink" width="34" height="32" viewBox="0 0 34 32"><defs><style>.a,.c{fill:#fff;stroke:#fff;}.a{stroke-width:2px;}.b{clip-path:url(#a);}.c{stroke-width:0.2px;}</style><clipPath id="a"><rect class="a" width="34" height="32" transform="translate(-0.407 -0.111)"/></clipPath></defs><g class="b" transform="translate(0.407 0.111)"><g transform="translate(4.838 0.524)"><g transform="translate(0)"><path class="c" d="M16.11,24.392l-.428,3.846a.678.678,0,0,0,.674.753h2.712a.678.678,0,0,0,.674-.753l-.428-3.846a2.682,2.682,0,0,0,1.109-2.181,2.712,2.712,0,1,0-5.423,0A2.682,2.682,0,0,0,16.11,24.392Zm1.6-3.536a1.351,1.351,0,0,1,.585,2.571.678.678,0,0,0-.379.685l.392,3.522h-1.2l.392-3.522a.678.678,0,0,0-.379-.685,1.351,1.351,0,0,1,.585-2.571Z" transform="translate(-5.51 -1.875)"/><path class="c" d="M28.226,12.2H26.192V9.49a9.49,9.49,0,0,0-18.981,0V12.2H5.178a.678.678,0,0,0-.678.678V29.827a2.714,2.714,0,0,0,2.712,2.712H26.192A2.714,2.714,0,0,0,28.9,29.827V12.88A.678.678,0,0,0,28.226,12.2ZM8.567,9.49a8.135,8.135,0,1,1,16.269,0V12.2H23.481V9.49a6.779,6.779,0,0,0-13.558,0V12.2H8.567Zm13.558,0V12.2H11.279V9.49a5.423,5.423,0,0,1,10.846,0Zm5.423,20.337a1.358,1.358,0,0,1-1.356,1.356H7.212a1.358,1.358,0,0,1-1.356-1.356V13.558H27.548Z" transform="translate(-4.5)"/></g></g></g></svg>