<?xml version="1.0" encoding="utf-8"?>
<!-- Generator: Adobe Illustrator 24.0.1, SVG Export Plug-In . SVG Version: 6.00 Build 0)  -->
<svg version="1.1" id="Layer_1" xmlns="http://www.w3.org/2000/svg" xmlns:xlink="http://www.w3.org/1999/xlink" x="0px" y="0px"
	 viewBox="0 0 170.71 168.77" style="enable-background:new 0 0 170.71 168.77;" xml:space="preserve">
<style type="text/css">
	.st0{fill:#152741;stroke:#192541;stroke-width:6;stroke-miterlimit:10;}
	.st1{fill:#FFFFFF;}
	.st2{clip-path:url(#SVGID_2_);}
	.st3{fill:#50C1E4;}
	.st4{fill:#1B394D;}
	.st5{fill:#1FB7CC;}
</style>
<g>
	<g>
		<g>
			<path class="st0" d="M150.38,50.53c-3.67,1.57-6.71,3.53-8.57,5.35c-0.91-1.18-2.53-1.64-3.96-1.03
				c-1.26,0.54-2.02,1.76-2.02,3.05c-6.04-12.05-15.89-21.12-27.44-26.36l0.12-0.3c1.56,0.34,3.19-0.49,3.8-2.02
				c0.55-1.38,0.12-2.92-0.97-3.82c1.66-1.92,3.39-4.85,4.77-8.29c2.71-6.78,3.05-13.02,0.77-13.93c-2.28-0.91-6.33,3.85-9.04,10.63
				c-1.38,3.45-2.14,6.76-2.26,9.3c-1.41-0.1-2.78,0.71-3.34,2.09c-0.61,1.54,0,3.26,1.36,4.09l-0.12,0.3c0,0,0,0,0,0
				c-11.99-4.17-25.37-4.38-38.05,0.2c0.89-0.94,1.19-2.34,0.65-3.61c-0.62-1.43-2.11-2.21-3.59-1.98c-0.09-2.6-0.95-6.12-2.52-9.79
				c-2.88-6.71-7.05-11.36-9.31-10.39c-2.26,0.97-1.76,7.19,1.12,13.9c1.57,3.67,3.53,6.72,5.36,8.57
				c-1.18,0.91-1.65,2.53-1.04,3.96c0.54,1.26,1.76,2.01,3.06,2.02C47.1,38.5,38.03,48.35,32.79,59.91c0,0,0,0,0,0l-0.3-0.12
				c0.34-1.57-0.49-3.19-2.02-3.8c-1.38-0.55-2.92-0.11-3.82,0.98c-1.92-1.66-4.85-3.38-8.3-4.77c-6.78-2.71-13.02-3.05-13.93-0.77
				c-0.91,2.29,3.84,6.33,10.63,9.04c3.45,1.38,6.76,2.14,9.3,2.26c-0.1,1.41,0.71,2.78,2.09,3.33c1.54,0.61,3.25,0,4.09-1.36
				l0.3,0.12c-4.24,12.21-4.38,25.88,0.47,38.77l-0.27,0.12c-0.87-1.34-2.6-1.91-4.12-1.26c-1.37,0.59-2.15,1.98-2.01,3.38
				c-2.54,0.19-5.82,1.03-9.24,2.5c-6.71,2.88-11.37,7.05-10.39,9.31c0.97,2.26,7.2,1.76,13.91-1.12c3.41-1.47,6.29-3.27,8.17-4.98
				c0.93,1.07,2.47,1.47,3.84,0.88c1.52-0.65,2.3-2.3,1.92-3.86l0.27-0.11c5.89,12.17,15.64,21.37,27.13,26.75
				c-1.31,0.02-2.54,0.81-3.06,2.1c-0.58,1.45-0.07,3.05,1.13,3.94c-1.77,1.9-3.66,5-5.13,8.71c-2.71,6.78-3.06,13.02-0.77,13.93
				c2.28,0.91,6.33-3.84,9.04-10.62c1.48-3.71,2.25-7.25,2.28-9.85c1.48,0.2,2.95-0.62,3.53-2.07c0.52-1.29,0.17-2.72-0.78-3.63
				c12.04,4.02,25.45,4.07,38.1-0.7l0.12,0.27c-1.35,0.86-1.91,2.6-1.26,4.12c0.59,1.37,1.98,2.14,3.39,2.01
				c0.18,2.53,1.03,5.82,2.5,9.24c2.88,6.71,7.05,11.37,9.31,10.39c2.26-0.97,1.76-7.2-1.12-13.91c-1.46-3.42-3.27-6.3-4.98-8.17
				c1.06-0.92,1.47-2.47,0.88-3.84c-0.65-1.52-2.3-2.31-3.86-1.93l-0.12-0.27c12.17-5.89,21.37-15.64,26.76-27.13
				c0.01,1.31,0.81,2.55,2.1,3.06c1.45,0.58,3.06,0.07,3.93-1.13c1.9,1.77,5,3.65,8.7,5.14c6.79,2.71,13.03,3.05,13.93,0.77
				c0.91-2.28-3.85-6.33-10.63-9.04c-3.7-1.48-7.24-2.25-9.85-2.27c0.19-1.48-0.62-2.96-2.07-3.53c-1.29-0.52-2.72-0.17-3.63,0.78
				c3.94-11.81,4.06-24.93-0.43-37.37c0.93,0.89,2.34,1.19,3.61,0.64c1.43-0.61,2.21-2.11,1.98-3.59c2.6-0.09,6.12-0.95,9.78-2.52
				c6.71-2.88,11.37-7.05,10.4-9.31C163.33,47.14,157.09,47.65,150.38,50.53z M132.33,60.24l-7.12,3.05
				c-4.69-9.38-12.29-16.5-21.24-20.68l2.87-7.19C117.62,40.35,126.79,48.9,132.33,60.24z M97.44,78.09
				c0.36,0.83,0.63,1.68,0.81,2.53l25.21-10.82c3.14,8.81,3.06,18.09,0.32,26.45l-21.53-8.6l-3.93-1.57c-0.34,1.75-1,3.42-1.96,4.91
				l3.93,1.57l21.53,8.6l0,0c-3.78,7.95-10.12,14.73-18.46,18.95L92.54,94.91c-0.72,0.49-1.5,0.92-2.33,1.28
				c-0.83,0.36-1.68,0.62-2.53,0.81L98.5,122.2c-8.81,3.13-18.08,3.06-26.45,0.32l0,0l8.6-21.53l1.57-3.93
				c-1.75-0.34-3.42-1-4.92-1.96l-1.57,3.93l-8.6,21.53c0,0,0,0,0,0c-7.95-3.77-14.72-10.11-18.95-18.45l25.21-10.82
				c-0.49-0.72-0.92-1.5-1.28-2.32c-0.36-0.84-0.62-1.68-0.81-2.54L46.09,97.24c-3.14-8.81-3.06-18.08-0.32-26.45l21.53,8.6
				l3.93,1.57c0.33-1.74,1-3.41,1.96-4.91L47.74,65.88c3.78-7.95,10.11-14.72,18.45-18.95l10.82,25.21c0.72-0.49,1.5-0.92,2.33-1.28
				c0.83-0.36,1.67-0.63,2.53-0.81L71.05,44.84c8.81-3.13,18.09-3.06,26.45-0.32l0,0l-8.6,21.54l-1.57,3.93
				c1.75,0.33,3.42,1,4.91,1.97l1.57-3.93l8.61-21.53c7.95,3.78,14.73,10.11,18.95,18.45L96.16,75.76
				C96.65,76.48,97.08,77.26,97.44,78.09z M101.93,33.46L101.93,33.46l-2.87,7.19c0,0,0,0,0,0C89.69,37.52,79.27,37.42,69.4,41
				l-3.06-7.12C78.18,29.48,90.72,29.6,101.93,33.46z M61.49,35.97l3.05,7.12c-9.39,4.69-16.5,12.3-20.69,21.24l-7.19-2.87
				C41.6,50.68,50.15,41.51,61.49,35.97z M34.71,66.37L34.71,66.37l7.19,2.87l0,0c-3.12,9.37-3.22,19.78,0.36,29.65l-7.12,3.06
				C30.73,90.12,30.86,77.58,34.71,66.37z M37.22,106.81l7.12-3.05c4.69,9.39,12.3,16.5,21.24,20.69l0,0l-2.87,7.19l0,0
				C51.92,126.69,42.76,118.15,37.22,106.81z M67.62,133.59L67.62,133.59l2.87-7.19l0,0c9.37,3.13,19.78,3.22,29.65-0.36l3.05,7.12
				C91.37,137.57,78.83,137.45,67.62,133.59z M108.06,131.08l-3.06-7.12c9.39-4.69,16.51-12.3,20.69-21.24c0,0,0,0,0,0l7.18,2.87
				l0,0C127.95,116.37,119.4,125.54,108.06,131.08z M134.85,100.68l-7.19-2.87l0,0c3.13-9.36,3.22-19.78-0.35-29.66l7.12-3.05
				C138.82,76.94,138.7,89.46,134.85,100.68z"/>
			<g>
				<path class="st0" d="M100.05,74.09c-1.57-2.56-3.74-4.62-6.23-6.07c-1.53-0.89-3.19-1.55-4.91-1.96
					c-2.81-0.67-5.79-0.67-8.7,0.1c-0.84,0.22-1.68,0.51-2.51,0.87c-0.83,0.35-1.62,0.76-2.35,1.22c-2.57,1.58-4.62,3.74-6.07,6.24
					c-0.89,1.53-1.56,3.19-1.97,4.91c-0.67,2.8-0.67,5.79,0.1,8.7c0.22,0.85,0.51,1.68,0.86,2.51c0.36,0.82,0.76,1.61,1.22,2.35
					c1.58,2.57,3.74,4.63,6.23,6.07c1.53,0.89,3.19,1.55,4.91,1.96c2.81,0.67,5.79,0.66,8.71-0.11c0.84-0.22,1.68-0.51,2.51-0.86
					c0.82-0.35,1.61-0.76,2.35-1.22c2.56-1.58,4.62-3.74,6.07-6.24c0.89-1.53,1.55-3.19,1.96-4.91c0.67-2.8,0.67-5.79-0.11-8.7
					c-0.22-0.84-0.51-1.68-0.86-2.5C100.92,75.62,100.51,74.84,100.05,74.09z M98.31,86.08c-0.34,1.75-1,3.42-1.96,4.91
					c-0.98,1.52-2.26,2.86-3.81,3.92c-0.72,0.49-1.5,0.92-2.33,1.28c-0.83,0.36-1.68,0.62-2.53,0.81c-1.83,0.4-3.69,0.4-5.47,0.06
					c-1.75-0.34-3.42-1-4.92-1.96c-1.52-0.98-2.86-2.27-3.91-3.81c-0.49-0.72-0.92-1.5-1.28-2.32c-0.36-0.84-0.62-1.68-0.81-2.54
					c-0.39-1.83-0.4-3.68-0.06-5.46c0.33-1.74,1-3.41,1.96-4.91c0.98-1.52,2.26-2.85,3.82-3.91c0.72-0.49,1.5-0.92,2.33-1.28
					c0.83-0.36,1.67-0.63,2.53-0.81c1.83-0.39,3.69-0.4,5.46-0.07c1.75,0.33,3.42,1,4.91,1.97c1.52,0.98,2.86,2.26,3.92,3.81
					c0.49,0.72,0.92,1.5,1.28,2.33c0.36,0.83,0.63,1.68,0.81,2.53C98.64,82.45,98.65,84.31,98.31,86.08z"/>
			</g>
		</g>
	</g>
	<circle class="st1" cx="84.62" cy="84.16" r="42.57"/>
	<g>
		<defs>
			<rect id="SVGID_1_" x="44.01" y="43.55" width="81.22" height="81.22"/>
		</defs>
		<clipPath id="SVGID_2_">
			<use xlink:href="#SVGID_1_"  style="overflow:visible;"/>
		</clipPath>
		<g id="smile" transform="translate(0.158 0.158)" class="st2">
			<circle id="Ellipse_4" class="st3" cx="84.46" cy="84" r="40.61"/>
			<path id="Path_52" class="st4" d="M84.34,109.79c-11.87,0-22.22-8.05-25.15-19.55c-0.23-0.9,0.31-1.83,1.22-2.06
				c0.9-0.23,1.83,0.31,2.06,1.22c3.08,12.08,15.36,19.38,27.44,16.3c8.01-2.04,14.26-8.29,16.3-16.3c0.23-0.91,1.15-1.45,2.06-1.22
				c0.91,0.23,1.45,1.15,1.22,2.06C106.56,101.74,96.2,109.79,84.34,109.79z"/>
			<path id="Path_53" class="st5" d="M124.93,83.7c0,22.42-18.17,40.59-40.59,40.59c-12.27,0-23.89-5.55-31.59-15.11
				c17.45,14.07,43.01,11.34,57.08-6.11c11.99-14.87,11.99-36.09,0-50.96C119.38,59.8,124.93,71.42,124.93,83.7z"/>
			<ellipse id="Ellipse_5" class="st4" cx="71.23" cy="78.04" rx="6.22" ry="7.39"/>
			<path id="Path_54" class="st3" d="M74.03,76.45c-0.62,0.36-1.4,0.17-1.79-0.43c-0.52-0.38-0.63-1.1-0.25-1.62
				c0.38-0.52,1.1-0.63,1.62-0.25c0.16,0.12,0.28,0.27,0.36,0.45C74.49,75.1,74.51,75.91,74.03,76.45z"/>
			<ellipse id="Ellipse_6" class="st4" cx="97.45" cy="78.04" rx="6.22" ry="7.39"/>
			<path id="Path_55" class="st3" d="M100.25,76.45c-0.62,0.35-1.4,0.17-1.79-0.43c-0.52-0.38-0.63-1.1-0.25-1.62
				c0.38-0.52,1.1-0.63,1.62-0.25c0.16,0.12,0.28,0.27,0.36,0.45C100.7,75.1,100.73,75.91,100.25,76.45z"/>
		</g>
	</g>
</g>
</svg>
