<svg id="Слой_1" data-name="Слой 1" xmlns="http://www.w3.org/2000/svg" xmlns:xlink="http://www.w3.org/1999/xlink" viewBox="0 0 127.41 127.41"><defs><linearGradient id="linear-gradient" x1="97.03" y1="-76.32" x2="178.86" y2="-173.85" gradientTransform="matrix(1, 0, 0, -1, -72.6, -59.9)" gradientUnits="userSpaceOnUse"><stop offset="0" stop-color="#fff6b7"/><stop offset="1" stop-color="#98761e"/></linearGradient><linearGradient id="linear-gradient-2" x1="81.48" y1="-98.75" x2="194.41" y2="-151.42" gradientTransform="matrix(1, 0, 0, -1, -72.6, -59.9)" gradientUnits="userSpaceOnUse"><stop offset="0" stop-color="#fdffcf"/><stop offset="0.16" stop-color="#d9b14d"/><stop offset="0.43" stop-color="#f1c458"/><stop offset="0.68" stop-color="#fdffce"/><stop offset="0.85" stop-color="#e4b950"/></linearGradient><linearGradient id="linear-gradient-3" x1="96.75" y1="-83.89" x2="179.14" y2="-166.28" gradientTransform="matrix(1, 0, 0, -1, -72.6, -59.9)" gradientUnits="userSpaceOnUse"><stop offset="0" stop-color="#987f25"/><stop offset="0.76" stop-color="#fff6b7"/><stop offset="1" stop-color="#fff"/></linearGradient><linearGradient id="linear-gradient-4" x1="86.43" y1="-101.07" x2="189.45" y2="-149.11" gradientTransform="matrix(1, 0, 0, -1, -72.6, -59.9)" gradientUnits="userSpaceOnUse"><stop offset="0" stop-color="#eabe54"/><stop offset="0.22" stop-color="#fdffcf"/><stop offset="0.42" stop-color="#f2be4f"/><stop offset="0.55" stop-color="#f5cc4f"/><stop offset="0.76" stop-color="#fcffbf"/><stop offset="1" stop-color="#e8bb53"/></linearGradient></defs><title>Монетка</title><path d="M65.34,128.84A63.66,63.66,0,1,1,129,65.19,63.65,63.65,0,0,1,65.34,128.84Z" transform="translate(-1.64 -1.48)" style="stroke:#7d6c1d;stroke-miterlimit:10;stroke-width:0.100000001490116px;fill:url(#linear-gradient)"/><path d="M65.34,127.48a62.3,62.3,0,1,1,62.3-62.29A62.29,62.29,0,0,1,65.34,127.48Z" transform="translate(-1.64 -1.48)" style="fill:url(#linear-gradient-2)"/><path d="M65.34,123.45a58.27,58.27,0,1,1,58.27-58.26A58.27,58.27,0,0,1,65.34,123.45Z" transform="translate(-1.64 -1.48)" style="fill:url(#linear-gradient-3)"/><path d="M65.34,122a56.83,56.83,0,1,1,56.83-56.82A56.82,56.82,0,0,1,65.34,122Z" transform="translate(-1.64 -1.48)" style="fill:url(#linear-gradient-4)"/><path d="M46.62,82.5" transform="translate(-1.64 -1.48)"/><path d="M60.38,74.14" transform="translate(-1.64 -1.48)" style="fill:#242c5c;stroke:#242c5c;stroke-miterlimit:10;stroke-width:0.75px"/><path d="M56.06,16.33A62.62,62.62,0,0,0,46,29.31a55.76,55.76,0,0,0-6,14.78,65.77,65.77,0,0,0-1.71,16,81.49,81.49,0,0,0,2,16.39,41.86,41.86,0,0,1-5.54-16.12,47.74,47.74,0,0,1,.86-17.29A43.18,43.18,0,0,1,43,27.36,36.91,36.91,0,0,1,56.06,16.33Z" transform="translate(-1.64 -1.48)" style="fill:#ad8c3c"/><path d="M40.28,76.52c-1.94-2.17-3.71-4.19-5.6-6a52.33,52.33,0,0,0-5.9-5,57.69,57.69,0,0,0-6.6-4.11c-2.37-1.29-4.76-2.47-7.37-3.8a20.15,20.15,0,0,1,8.64.5,23.45,23.45,0,0,1,8,3.77,23.18,23.18,0,0,1,6,6.46A18.66,18.66,0,0,1,40.28,76.52Z" transform="translate(-1.64 -1.48)" style="fill:#ad8c3c"/><path d="M55.89,16.4a59.7,59.7,0,0,0-15.58,8.33A54.09,54.09,0,0,0,28.29,37a55.1,55.1,0,0,0-7.55,15.46A67.54,67.54,0,0,0,17.91,70a40.47,40.47,0,0,1-.6-18.33A44.1,44.1,0,0,1,38.36,21.79,38.17,38.17,0,0,1,55.89,16.4Z" transform="translate(-1.64 -1.48)" style="fill:#ad8c3c"/><path d="M64.4,46.23a2.41,2.41,0,0,1-.93-1.54,3.18,3.18,0,0,1,.2-1.79c.21-.51.32-.63.44-1a5.87,5.87,0,0,0,.23-1.47,2,2,0,0,1,1.34,1.31,2.78,2.78,0,0,1-.15,1.92L65,44.78C64.85,45.19,64.68,45.65,64.4,46.23Z" transform="translate(-1.64 -1.48)" style="fill:#ad8c3c"/><path d="M61.1,46.77a4.63,4.63,0,0,1-1.7-2.13A5.73,5.73,0,0,1,59,41.88a6.08,6.08,0,0,0,.05-2.07,8.71,8.71,0,0,0-.79-2.25,3.49,3.49,0,0,1,2.25,1.66,3.73,3.73,0,0,1,.5,1.45,6.41,6.41,0,0,1,0,1.4,16.52,16.52,0,0,0-.11,2.21C60.93,45.05,61,45.84,61.1,46.77Z" transform="translate(-1.64 -1.48)" style="fill:#ad8c3c"/><path d="M58.62,47.4a2.48,2.48,0,0,1-1.73-.53,3.22,3.22,0,0,1-1-1.47c-.19-.53-.18-.69-.35-1a6.07,6.07,0,0,0-.8-1.25,1.93,1.93,0,0,1,1.86.09,2.76,2.76,0,0,1,1.17,1.53l.38,1.18C58.25,46.32,58.44,46.77,58.62,47.4Z" transform="translate(-1.64 -1.48)" style="fill:#ad8c3c"/><path d="M57.15,50.33c-.82-.36-1.49-.71-2.17-1a14.17,14.17,0,0,0-2-.65,5.88,5.88,0,0,1-1.25-.46,3.52,3.52,0,0,1-1.13-1,3.32,3.32,0,0,1-.69-2.59,9.17,9.17,0,0,0,1.76,1.45,6.78,6.78,0,0,0,1.85.64,5.31,5.31,0,0,1,2.34,1.26A4.4,4.4,0,0,1,57.15,50.33Z" transform="translate(-1.64 -1.48)" style="fill:#ad8c3c"/><path d="M56,52.16c-.62.18-1.08.25-1.48.36s-.72.18-1.14.26a2.57,2.57,0,0,1-1.84-.23,1.89,1.89,0,0,1-1-1.52,6.31,6.31,0,0,0,1.43,0c.38,0,.49-.14,1-.23A2.93,2.93,0,0,1,54.7,51,2.31,2.31,0,0,1,56,52.16Z" transform="translate(-1.64 -1.48)" style="fill:#ad8c3c"/><path d="M68,47.15c.06-.93.17-1.72.18-2.48a14.94,14.94,0,0,0-.11-2.21,7.11,7.11,0,0,1,0-1.4,3.84,3.84,0,0,1,.5-1.46A3.48,3.48,0,0,1,70.8,38,8.46,8.46,0,0,0,70,40.2a6.57,6.57,0,0,0,0,2.06A5.71,5.71,0,0,1,69.71,45,4.66,4.66,0,0,1,68,47.15Z" transform="translate(-1.64 -1.48)" style="fill:#ad8c3c"/><path d="M70.49,47.78c.18-.62.36-1.07.49-1.5l.39-1.18a2.73,2.73,0,0,1,1.16-1.53,2,2,0,0,1,1.86-.09,6.66,6.66,0,0,0-.8,1.25,11,11,0,0,0-.34,1.05,3.19,3.19,0,0,1-1,1.47A2.4,2.4,0,0,1,70.49,47.78Z" transform="translate(-1.64 -1.48)" style="fill:#ad8c3c"/><path d="M72,50.71a4.37,4.37,0,0,1,1.29-2.27,5.41,5.41,0,0,1,2.35-1.27,6.39,6.39,0,0,0,1.84-.64,9.15,9.15,0,0,0,1.76-1.44,3.31,3.31,0,0,1-.68,2.59,3.64,3.64,0,0,1-1.14,1,6.34,6.34,0,0,1-1.25.47,14.58,14.58,0,0,0-2,.64C73.45,50,72.77,50.35,72,50.71Z" transform="translate(-1.64 -1.48)" style="fill:#ad8c3c"/><path d="M73.14,52.55a2.35,2.35,0,0,1,1.26-1.2,3,3,0,0,1,1.72-.15c.53.1.63.19,1,.24a6.43,6.43,0,0,0,1.43,0,1.89,1.89,0,0,1-1,1.53,2.65,2.65,0,0,1-1.83.23c-.43-.09-.73-.17-1.14-.27S73.75,52.72,73.14,52.55Z" transform="translate(-1.64 -1.48)" style="fill:#ad8c3c"/><path d="M56.78,52.79a9.54,9.54,0,0,1,.88-1.47,8.43,8.43,0,0,1,2.44-2.4,7.77,7.77,0,0,1,4.34-1.11,8.06,8.06,0,0,1,5.06,1.9,7.65,7.65,0,0,1,2.12,3,7.14,7.14,0,0,1,.46,2.11,27,27,0,0,1-5.79-1.29A32.63,32.63,0,0,0,63,52.39,11.68,11.68,0,0,0,56.78,52.79Z" transform="translate(-1.64 -1.48)" style="fill:#ad8c3c;stroke:#ad8c3c;stroke-miterlimit:10;stroke-width:0.25px"/><path d="M88.87,20.57a3.66,3.66,0,0,1,2.31,2.49,3.94,3.94,0,0,1,.07,1.77,3.11,3.11,0,0,1-.72,1.57c0-.58,0-1.1-.06-1.61a8.39,8.39,0,0,0-.25-1.46A6.84,6.84,0,0,0,89.68,22C89.45,21.51,89.16,21.07,88.87,20.57Z" transform="translate(-1.64 -1.48)" style="fill:#ad8c3c"/><path d="M90.53,26.41a1.43,1.43,0,0,1,.11-1,2.14,2.14,0,0,1,.61-.76,1.59,1.59,0,0,1,1.9-.1c-.58.38-.92.61-1.29.9l-.6.44C91.05,26.06,90.83,26.22,90.53,26.41Z" transform="translate(-1.64 -1.48)" style="fill:#ad8c3c"/><path d="M97.53,26.7a3.69,3.69,0,0,1,2.32,2.5A4.08,4.08,0,0,1,99.91,31a3.26,3.26,0,0,1-.71,1.57c0-.58,0-1.11-.07-1.61a7.65,7.65,0,0,0-.25-1.47,6.76,6.76,0,0,0-.54-1.36C98.11,27.65,97.82,27.2,97.53,26.7Z" transform="translate(-1.64 -1.48)" style="fill:#ad8c3c"/><path d="M99.19,32.54a1.5,1.5,0,0,1,.12-1,2.14,2.14,0,0,1,.61-.76,1.61,1.61,0,0,1,1.9-.1c-.58.38-.93.61-1.3.9-.19.14-.39.3-.6.44S99.49,32.36,99.19,32.54Z" transform="translate(-1.64 -1.48)" style="fill:#ad8c3c"/><path d="M78.21,16.33a3.68,3.68,0,0,1,2.92,1.75,4,4,0,0,1,.56,1.69,3.28,3.28,0,0,1-.25,1.7c-.17-.55-.33-1-.51-1.53a8.64,8.64,0,0,0-.65-1.33,6.57,6.57,0,0,0-.9-1.16C79,17.08,78.63,16.73,78.21,16.33Z" transform="translate(-1.64 -1.48)" style="fill:#ad8c3c"/><path d="M81.43,21.48a1.5,1.5,0,0,1-.16-1,2.12,2.12,0,0,1,.38-.9A1.58,1.58,0,0,1,83.44,19c-.45.53-.72.85-1,1.23-.15.18-.3.39-.46.58A8.56,8.56,0,0,1,81.43,21.48Z" transform="translate(-1.64 -1.48)" style="fill:#ad8c3c"/><path d="M105.27,35.8a3.71,3.71,0,0,1,1.86,2.85,4.16,4.16,0,0,1-.24,1.76,3.2,3.2,0,0,1-1,1.42c.09-.57.17-1.09.21-1.59a8.23,8.23,0,0,0,0-1.49,6.84,6.84,0,0,0-.3-1.44C105.68,36.83,105.47,36.34,105.27,35.8Z" transform="translate(-1.64 -1.48)" style="fill:#ad8c3c"/><path d="M105.91,41.84a1.5,1.5,0,0,1,.28-1,2.14,2.14,0,0,1,.73-.64,1.6,1.6,0,0,1,1.89.22c-.63.28-1,.45-1.43.67l-.66.33C106.48,41.58,106.24,41.71,105.91,41.84Z" transform="translate(-1.64 -1.48)" style="fill:#ad8c3c"/><path d="M109.49,46.56a3.71,3.71,0,0,1,1.86,2.85,4.16,4.16,0,0,1-.24,1.76,3.2,3.2,0,0,1-1,1.42c.09-.57.17-1.09.21-1.6a8.13,8.13,0,0,0,0-1.48,6.84,6.84,0,0,0-.3-1.44C109.9,47.59,109.69,47.1,109.49,46.56Z" transform="translate(-1.64 -1.48)" style="fill:#ad8c3c"/><path d="M110.13,52.6a1.5,1.5,0,0,1,.28-1,2.13,2.13,0,0,1,.73-.64,1.59,1.59,0,0,1,1.89.22c-.63.27-1,.44-1.43.66l-.66.34C110.7,52.34,110.46,52.46,110.13,52.6Z" transform="translate(-1.64 -1.48)" style="fill:#ad8c3c"/><path d="M49.77,57.06a16.56,16.56,0,0,1,7.37-2.74,15.34,15.34,0,0,1,4.06,0,19,19,0,0,1,3.91,1c1.23.46,2.36.92,3.51,1.28a21.91,21.91,0,0,0,3.52.8,33.55,33.55,0,0,0,7.51.09A16.36,16.36,0,0,1,72,59.41,17.15,17.15,0,0,1,68,59a36.44,36.44,0,0,1-3.74-1.22,20.32,20.32,0,0,0-7-1.48A34,34,0,0,0,49.77,57.06Z" transform="translate(-1.64 -1.48)" style="fill:#ad8c3c"/><path d="M45.94,61.29a20.67,20.67,0,0,1,9.21-3.39,20,20,0,0,1,5.06.11A25.88,25.88,0,0,1,65,59.38a21.7,21.7,0,0,0,4.38,1.26A21.41,21.41,0,0,0,74,61a36.8,36.8,0,0,0,9.27-1.73,21.39,21.39,0,0,1-9.09,3.67,18.31,18.31,0,0,1-5.07.08,21.81,21.81,0,0,1-4.89-1.26,27.45,27.45,0,0,0-4.39-1.39,22.69,22.69,0,0,0-4.53-.49A34.16,34.16,0,0,0,45.94,61.29Z" transform="translate(-1.64 -1.48)" style="fill:#ad8c3c"/><path d="M102,86a31,31,0,0,0-6-.47,16.59,16.59,0,0,0-2.84.37,18.05,18.05,0,0,0-2.74.88,16.21,16.21,0,0,1-3.17.89,14,14,0,0,1-9.41-1.92,37.84,37.84,0,0,0,6.1.06,19,19,0,0,0,2.85-.47,21.59,21.59,0,0,0,2.76-.9,14.46,14.46,0,0,1,3.2-.87,12.12,12.12,0,0,1,3.35,0A13.13,13.13,0,0,1,102,86Z" transform="translate(-1.64 -1.48)" style="fill:#ad8c3c"/><path d="M97.07,91.75a30.81,30.81,0,0,0-4.18,0A12.16,12.16,0,0,0,91,92a15,15,0,0,0-1.82.61,10.64,10.64,0,0,1-2.24.61,9.33,9.33,0,0,1-2.36,0,8.62,8.62,0,0,1-4.19-1.7,41.2,41.2,0,0,0,4.2-.27,14.37,14.37,0,0,0,1.89-.38,18,18,0,0,0,1.83-.62,9.76,9.76,0,0,1,2.28-.6,8.23,8.23,0,0,1,2.38.06A8.07,8.07,0,0,1,97.07,91.75Z" transform="translate(-1.64 -1.48)" style="fill:#ad8c3c"/><path d="M90.59,97.16c-1,.14-1.89.2-2.66.35a9.71,9.71,0,0,0-1.09.26c-.34.11-.65.23-1.07.39a5.88,5.88,0,0,1-1.5.38,5.23,5.23,0,0,1-1.58-.05A4.7,4.7,0,0,1,80,97.05c1-.21,1.88-.34,2.66-.53q.58-.13,1.11-.3c.36-.12.67-.24,1.09-.4a6.37,6.37,0,0,1,1.52-.38,5.09,5.09,0,0,1,1.61.11A4.51,4.51,0,0,1,90.59,97.16Z" transform="translate(-1.64 -1.48)" style="fill:#ad8c3c"/><path d="M54.35,98.31c.14-.2.27-.41.33-.51a8.9,8.9,0,0,0,.47-1,2.39,2.39,0,0,1-.21-.75,4,4,0,0,1,.11-1c.06-.34.13-.76.22-1.24a6,6,0,0,1,.54,1.7,5.28,5.28,0,0,1,.69-.75,3.28,3.28,0,0,0,.32-.31,3.92,3.92,0,0,0,.52-1.16,6.84,6.84,0,0,1,.39-1l.09-.18v-.31a2.92,2.92,0,0,1,.08-.94,3,3,0,0,1,.35-.81,2.85,2.85,0,0,1,.56-.69,2.14,2.14,0,0,1,.5-.32,2.75,2.75,0,0,1,.3-.14l0,0,.44-.19.24-.07c0-.08,0-.18-.06-.35s0-.3-.05-.4a3.85,3.85,0,0,0,0-.66c0-.23-.1-.19-.14-.39s.06-.46.07-.91a2.55,2.55,0,0,0,0-.44,2.61,2.61,0,0,0-.62-1.39,1.63,1.63,0,0,0-.55-.44,2.07,2.07,0,0,0-1-.15,2,2,0,0,0-.8.1l-.07,0h0l-.18.09a2.58,2.58,0,0,0-.27.21l-.08.11,0,0a2.72,2.72,0,0,0-.61,1.39,3,3,0,0,0,0,.92,2,2,0,0,1,0,.43c-.05.38-.22.43-.28.77s.09.28.07.61a2.58,2.58,0,0,1-.18.75c0,.06,0,.11-.07.16a2.19,2.19,0,0,1-.11.2,3.69,3.69,0,0,0-.9.59,2.62,2.62,0,0,0-.58,1.17,7.78,7.78,0,0,0-.28,2.21,13,13,0,0,1-.07,2.44,1.88,1.88,0,0,0-.09.7,2,2,0,0,0,.16.69A4.1,4.1,0,0,0,54.35,98.31Z" transform="translate(-1.64 -1.48)" style="fill:#ad8c3c"/><path d="M61,98a3.64,3.64,0,0,0-.06-.73c0-.1-.08-.29-.18-.67s-.13-.44-.15-.51c-.13-.46-.14-.45-.18-.63s-.05-.21-.12-.52h0l0-.14v0h0c0-.09,0-.17-.08-.25a3.05,3.05,0,0,1-.37.49.76.76,0,0,1-.16.19,2.24,2.24,0,0,0-.62.92l-.13.33-.32.36c-.17.2-.42.5-.55.67-.26.34-.71.87-1.38,1.63a11.8,11.8,0,0,0-.91,1.12l-.08.11v.25a1.55,1.55,0,0,1,0,.23,2,2,0,0,1-.08.31,1.07,1.07,0,0,1-.06.27l-.05.11,0,0a.59.59,0,0,1,0,.48l0,.08a.33.33,0,0,1-.21.1,2,2,0,0,0,.39.48,2.87,2.87,0,0,0,1.77.53c.72.06.74-.06,1.6,0l.68,0a3.39,3.39,0,0,0,.52,0h0a3.12,3.12,0,0,0,.51,0h0l-.16-.14-.12-.14a1.51,1.51,0,0,1-.12-.2,2.55,2.55,0,0,1,0-2.21v0c0-.1.08-.24.1-.3s0-.12,0-.16,0-.08,0-.22a.88.88,0,0,1,.38-.71.28.28,0,0,0,.16-.18C61,98.74,61,98.67,61,98Z" transform="translate(-1.64 -1.48)" style="fill:#ad8c3c"/><path d="M74.42,97.36c0-.28,0-.56-.24-.69a.46.46,0,0,0-.34-.06c.3.6.46.91.57,1.1A1.42,1.42,0,0,0,74.42,97.36Z" transform="translate(-1.64 -1.48)" style="fill:#ad8c3c"/><path d="M68.59,92l.08.1C68.63,92.07,68.6,92,68.59,92Z" transform="translate(-1.64 -1.48)" style="fill:#ad8c3c"/><path d="M73.25,100c-.26-.28-.44-.5-.49-.57-.4-.51-.84-.85-1.82-1.88a8.08,8.08,0,0,1-.74-.81,6.35,6.35,0,0,0-.51-.91c-.22-.27-.26-.22-.54-.56a3.49,3.49,0,0,1-.37-.53c-.11-.24-.22-.48-.31-.73v0c0,.2,0,.26-.14.66s-.1.48-.16.72,0,.16-.19.63c0,.06-.07.25-.14.5s-.16.57-.18.68a3.59,3.59,0,0,0-.06.72c0,.66,0,.73,0,.88a.25.25,0,0,0,.16.17.89.89,0,0,1,.38.72c0,.13,0,.18,0,.21s0,.06,0,.16.06.2.1.31v0a4.94,4.94,0,0,1,.15.65,3.36,3.36,0,0,0,.55.57c.45.36.63.29.71.49s-.31.56-.24,1a1,1,0,0,0,.42.61.83.83,0,0,0,.8.08c.49-.29.45-1.41.81-1.74s.34-.15.62-.23a2.26,2.26,0,0,0,.43-.17l.13-.09a3.44,3.44,0,0,0,.35-.3,4.06,4.06,0,0,0,.64-.92l0,0C73.57,100.35,73.42,100.21,73.25,100Z" transform="translate(-1.64 -1.48)" style="fill:#ad8c3c"/><path d="M79.64,101.51c0-.05,0-.12-.08-.21-.26-.41-.21-.36-.26-.41a2.56,2.56,0,0,0-.75-.63l-.12-.07a1.33,1.33,0,0,0-.38-.14,2.51,2.51,0,0,0-.54,0,3.83,3.83,0,0,0-.49,0l-.48.07-.32,0-.25,0h0a1,1,0,0,1-.21-.15l-.11-.13a.92.92,0,0,1-.14-.19c-.07-.11,0-.1-.09-.18s-.1-.12-.18-.24a5.22,5.22,0,0,0-.36-.49c-.2-.26-.53-.7-.64-.87a12.63,12.63,0,0,1-.68-1.27,5.31,5.31,0,0,0-.57-1,5,5,0,0,0-.86-.85l-.35-.3a4.34,4.34,0,0,1-.62-1.2,7.92,7.92,0,0,0-.46-1l-.11-.19v-.32c0-.17,0-.31,0-.44a.22.22,0,0,1,0-.08v0a.34.34,0,0,0,0-.09.62.62,0,0,0,0-.1,1.84,1.84,0,0,0-.06-.23s-.08-.17-.19-.34a3,3,0,0,0-.56-.63,3.37,3.37,0,0,0-1.12-.75L68.09,89a7.57,7.57,0,0,1-2-1,2,2,0,0,1-.18-.15,1.18,1.18,0,0,1-.2-.3,2.23,2.23,0,0,1-.08-.24v0a.34.34,0,0,1,0-.1,3.27,3.27,0,0,1,0-.5,4.92,4.92,0,0,1,.08-.49l.09,0a.67.67,0,0,0,.14-.11,2.25,2.25,0,0,1,.17-.21.76.76,0,0,0,.22-.51c0-.31,0-.52-.17-.56l-.06,0V84.3a.88.88,0,0,0,0-.14c0-.08,0-.13,0-.24s0-.23,0-.31a2.22,2.22,0,0,0-.12-.46l0-.09-.1-.13-.08-.09a2,2,0,0,0-2.92,0,1.05,1.05,0,0,0-.16.26,1.25,1.25,0,0,0-.13.46c0,.08,0,.19-.05.31s0,.16,0,.24v.61l-.06,0c-.14,0-.21.25-.19.55a.79.79,0,0,0,.22.52,2.25,2.25,0,0,1,.17.21.41.41,0,0,0,.14.12l.08,0a8.67,8.67,0,0,1,.11,1s0,.12,0,.17h0a2.46,2.46,0,0,1-.07.24,1.64,1.64,0,0,1-.24.32l-.16.13a4.89,4.89,0,0,1-1.09.57l-.39.15-.19.07-.27.09-.45.19,0,0-.29.14a1.79,1.79,0,0,0-.5.32,2.87,2.87,0,0,0-.57.69,2.6,2.6,0,0,0-.34.8,2.75,2.75,0,0,0-.09,1l0,.31-.1.18a7,7,0,0,0-.38,1,4.13,4.13,0,0,1-.53,1.16,2.41,2.41,0,0,1-.32.31,5.8,5.8,0,0,0-.77.85,6.26,6.26,0,0,0-.48,1A11.5,11.5,0,0,1,55.08,98c-.09.16-.38.6-.56.85l-.32.49a2.57,2.57,0,0,1-.26.4,1.7,1.7,0,0,0,0,1.34,1.66,1.66,0,0,0,.85.86.32.32,0,0,0,.3,0,0,0,0,0,1,0,0,.15.15,0,0,0,0-.06s.07-.34,0-.44a.13.13,0,0,1,0-.06v0s.06-.17.11-.34a1.24,1.24,0,0,0,.08-.54v-.25l.08-.12a10.08,10.08,0,0,1,.9-1.11c.67-.76,1.12-1.29,1.39-1.64l.55-.66.31-.36.14-.33a2.13,2.13,0,0,1,.61-.92,7.84,7.84,0,0,0,.67-.84,3.11,3.11,0,0,0,.41-1.14,5.08,5.08,0,0,1,.08.51c0,.31,0,.31.05.51s.06.27.15.66.09.48.16.72,0,.17.18.63c0,.07.08.26.15.51s.16.57.17.67a2.87,2.87,0,0,1,.07.73c0,.66,0,.72-.05.87a.28.28,0,0,1-.16.18.88.88,0,0,0-.38.71c0,.14,0,.19,0,.22s0,0,0,.16-.07.2-.1.3v0a2.53,2.53,0,0,0,0,2.21,1.78,1.78,0,0,0,.81.52,2.83,2.83,0,0,0,1.38.2l.17,0c.23,0,.65-.08,1.18-.11h.08c.52,0,.89.1,1.37.14.16,0,1.66.11,2.19-.72a2.84,2.84,0,0,0,0-2.21v0a2.62,2.62,0,0,0-.1-.3c0-.11,0-.12,0-.16s0-.08,0-.22a.88.88,0,0,0-.38-.71.28.28,0,0,1-.16-.18c-.07-.15-.07-.21,0-.87a2.87,2.87,0,0,1,.07-.73c0-.1.07-.29.17-.67s.13-.44.15-.51c.13-.46.14-.45.19-.63s0-.21.15-.72.11-.45.15-.66,0-.2,0-.51c.11-.9.19-.79.19-1.07v0s0,.07,0,.09a7.29,7.29,0,0,0,1.32,2.49,2.59,2.59,0,0,1,.39.39,3,3,0,0,1,.31.55l.17.33.35.36.62.67c.8.93.94,1,1.55,1.63s.61.68,1,1.09l.69.65c.2.22.18.16.37.39a.88.88,0,0,0,.35.31.71.71,0,0,0,.27.07,4.5,4.5,0,0,0,.78-.06,2.56,2.56,0,0,1,1,0,1.91,1.91,0,0,1,.46.16,1.85,1.85,0,0,0,.42.24.5.5,0,0,0,.32,0s.11,0,.11-.09-.08-.06-.25-.17-.06,0-.24-.19-.29-.22-.28-.24.22,0,.38.1a1.26,1.26,0,0,1,.24.16l.16.14c.08.08.09.11.15.16a.33.33,0,0,0,.17.07s.12,0,.14-.07-.05-.09-.05-.1h0a.17.17,0,0,0,.12,0c.08,0,.17-.08.16-.12l0,0h0A.14.14,0,0,0,79.64,101.51Zm-1.31-.71.32.27Zm.76.74h0v0Zm.07.09v0s0,0,0,0Zm-.06-.5a3.62,3.62,0,0,0-.34-.34,1.77,1.77,0,0,0-.17-.14l.21.17a2.25,2.25,0,0,1,.3.31l.08.12Zm.28.36-.09-.09-.09-.13,0,0a1.42,1.42,0,0,0,.13.17l.08.09ZM70.66,91.43" transform="translate(-1.64 -1.48)" style="fill:#ad8c3c"/><path d="M74.21,91.19a6.18,6.18,0,0,0-.29-1.36,3.78,3.78,0,0,1-.15-.47l-.06-.26c0-.2,0-.19,0-.35a3.33,3.33,0,0,0-.42-1.08c-.14-.26-.15-.22-.31-.51s-.16-.34-.32-.64a4.05,4.05,0,0,0-.29-.52c-.19-.26-.25-.25-.54-.62a1.83,1.83,0,0,1-.34-.53c-.06-.19,0-.24-.08-.45a1.22,1.22,0,0,0-.28-.46,1,1,0,0,0-.41-.26c0,.09.06.18,0,.22s0,0,0,0-.11-.07-.16-.13a.52.52,0,0,0-.26-.14,1.5,1.5,0,0,0,0,.26l-.1,0-.08,0A.3.3,0,0,0,70,84s0,.06-.09.09,0,0-.11,0l-.11.05a.23.23,0,0,1-.16,0c-.06,0-.1,0-.27.06l-.36.15c-.34.15-.36.15-.4.2s-.07.13-.16.17a.36.36,0,0,0-.19.21c0,.11,0,.14,0,.21a.22.22,0,0,1-.1.09l-.1,0-.18,0-.12,0a.74.74,0,0,1-.18.07s0,0-.19,0l-.2,0a.67.67,0,0,0-.21.06.31.31,0,0,0-.1.1c-.06.11,0,.19,0,.37a.84.84,0,0,1,0,.12.69.69,0,0,0,0,.32,2,2,0,0,0,.14.54c.1.22.17.38.33.46a.37.37,0,0,0,.17,0l-.11,0-.09,0a.21.21,0,0,0-.16.13c0,.13,0,.3.11.31s.12-.06.13-.07l0,0s0,0,0-.06a0,0,0,0,0,0,0,1.64,1.64,0,0,1,0,.18.76.76,0,0,0,.1.27.52.52,0,0,0,.17.14c.1.06.13,0,.23.07s.1.1.21.16.08,0,.23,0,.15.07.29.1l.16,0c.15,0,.18-.2.29-.21s.13.1.18.17a.77.77,0,0,1,.09.46l.2.09.12.07.12.09.11.09.23.19.24.25h0l.28.24a2.19,2.19,0,0,1,.37.63,3,3,0,0,1,.15.67A4.58,4.58,0,0,1,71,92a5,5,0,0,1,.46.87c.17.39.19.58.36.91a3.2,3.2,0,0,0,.52.69l.71.64.49.63a9.71,9.71,0,0,0,.55-2,11.16,11.16,0,0,0,.11-1.32A5.82,5.82,0,0,0,74.21,91.19Z" transform="translate(-1.64 -1.48)" style="fill:#ad8c3c"/><path d="M72.16,16A36.92,36.92,0,0,1,85.08,27.18a43.45,43.45,0,0,1,7.33,15.76,48,48,0,0,1,.71,17.3,42.12,42.12,0,0,1-5.69,16.07,81.55,81.55,0,0,0,2.16-16.37,65.85,65.85,0,0,0-1.57-16,55.84,55.84,0,0,0-5.9-14.83A62.16,62.16,0,0,0,72.16,16Z" transform="translate(-1.64 -1.48)" style="fill:#ad8c3c"/><path d="M87.4,76.37a18.41,18.41,0,0,1,2.91-8.19,23.08,23.08,0,0,1,6.08-6.42,23.49,23.49,0,0,1,8-3.69,20,20,0,0,1,8.64-.43c-2.62,1.31-5,2.46-7.39,3.74a57,57,0,0,0-6.64,4,54.31,54.31,0,0,0-6,5C91.15,72.21,89.36,74.21,87.4,76.37Z" transform="translate(-1.64 -1.48)" style="fill:#ad8c3c"/><path d="M27.25,86a13.21,13.21,0,0,1,6-2.43,12.05,12.05,0,0,1,3.34,0,14.55,14.55,0,0,1,3.21.87,21.09,21.09,0,0,0,2.76.9,20.41,20.41,0,0,0,2.85.47,37.84,37.84,0,0,0,6.1-.06,14,14,0,0,1-9.41,1.92,16.21,16.21,0,0,1-3.17-.89,17.81,17.81,0,0,0-2.75-.88,15.43,15.43,0,0,0-2.83-.37A31.18,31.18,0,0,0,27.25,86Z" transform="translate(-1.64 -1.48)" style="fill:#ad8c3c"/><path d="M32.22,91.75a8.07,8.07,0,0,1,4.08-2,8.22,8.22,0,0,1,2.38-.06,9.76,9.76,0,0,1,2.28.6,18,18,0,0,0,1.83.62,14.37,14.37,0,0,0,1.89.38,41,41,0,0,0,4.19.27,8.54,8.54,0,0,1-4.18,1.69,8.88,8.88,0,0,1-2.36,0,10.9,10.9,0,0,1-2.25-.61A14.29,14.29,0,0,0,38.27,92a12.58,12.58,0,0,0-1.87-.31A30.81,30.81,0,0,0,32.22,91.75Z" transform="translate(-1.64 -1.48)" style="fill:#ad8c3c"/><path d="M38.69,97.16a4.57,4.57,0,0,1,2.57-1.61,5,5,0,0,1,1.6-.11,6.34,6.34,0,0,1,1.53.38l1.08.4c.35.11.73.21,1.12.3.78.19,1.64.32,2.65.53a4.67,4.67,0,0,1-2.65,1.44,5.15,5.15,0,0,1-1.57.05,5.88,5.88,0,0,1-1.5-.38c-.43-.16-.73-.28-1.07-.39a10.26,10.26,0,0,0-1.09-.26C40.59,97.35,39.72,97.3,38.69,97.16Z" transform="translate(-1.64 -1.48)" style="fill:#ad8c3c"/><path d="M42.66,75.28a.5.5,0,0,0,.57.57,3.36,3.36,0,0,0,1.06-.28,7.76,7.76,0,0,0,1.88-1.19A19.1,19.1,0,0,0,47.72,73c.27-.27.43-.4.48-.4s.08,0,.07.13a.4.4,0,0,1-.11.2,21.73,21.73,0,0,1-3,2.63,3.94,3.94,0,0,1-2.18.79,1.48,1.48,0,0,1-1.2-.4,1.34,1.34,0,0,1-.34-.92,5.31,5.31,0,0,1,.67-2.27c-.81.87-1.21,1.15-1.21.84a.3.3,0,0,1,.12-.19,12.61,12.61,0,0,0,2.12-2.31,42.33,42.33,0,0,0,3.26-4.77,1.44,1.44,0,0,0,.21-.59c0-.29-.16-.35-.48-.16s-.56.25-.59.21,0-.1.06-.17A6.11,6.11,0,0,1,47,64.94a4.74,4.74,0,0,1,1.45-.35c.59,0,.88.18.88.54a1.85,1.85,0,0,1-.3.84,17.33,17.33,0,0,1-1.75,2.09c-1,1-1.54,1.7-1.75,2a17.85,17.85,0,0,0-2.75,4.52A2.31,2.31,0,0,0,42.66,75.28Z" transform="translate(-1.64 -1.48)" style="fill:#ad8c3c;stroke:#ad8c3c;stroke-miterlimit:10;stroke-width:0.5px"/><path d="M52.07,68.94c.31-.47.56-.83.74-1.11a6.29,6.29,0,0,1,.46-.6,1.56,1.56,0,0,1,.75-.32,5.07,5.07,0,0,1,1.14-.14q.54,0,.54.12a4.75,4.75,0,0,1-.9,1,31.06,31.06,0,0,0-2.1,2.29,2.68,2.68,0,0,1,1.87.91c.11.19.13.32,0,.38s-.16,0-.26-.07A2,2,0,0,0,53,70.93,5.59,5.59,0,0,0,52,71a12.6,12.6,0,0,0-2.15,3.57,2.17,2.17,0,0,0-.14.67c0,.49.2.73.61.73a3.5,3.5,0,0,0,1.82-.9,24.5,24.5,0,0,0,2.67-2.29c.14-.15.23-.19.27-.1s0,.17-.1.27a24.06,24.06,0,0,1-3,2.78,3.93,3.93,0,0,1-2.25.9q-1.41,0-1.41-1.5a4.63,4.63,0,0,1,.4-1.7l-.38.36q-.16.16-.24.09a.19.19,0,0,1-.08-.13s.06-.11.17-.21a21.1,21.1,0,0,0,2.1-2c-.26.1-.44.1-.53,0a.6.6,0,0,1-.19-.34q-.06-.21.21-.51a1.48,1.48,0,0,1,.78-.44,5.83,5.83,0,0,1,.76-.16Z" transform="translate(-1.64 -1.48)" style="fill:#ad8c3c;stroke:#ad8c3c;stroke-miterlimit:10;stroke-width:0.5px"/><path d="M60.07,72.86c.75-.4,1.12-.82,1.12-1.24s-.26-.63-.76-.63a1.89,1.89,0,0,0-.76.19A5,5,0,0,0,58,72.57a3.69,3.69,0,0,0-1,2.27,1.39,1.39,0,0,0,.22.74.85.85,0,0,0,.79.35,4.83,4.83,0,0,0,2.5-1,20.37,20.37,0,0,0,2.61-2.09c.17-.17.25-.17.25,0a.3.3,0,0,1-.13.25l-1,1c-.17.16-.52.45-1,.86a8.07,8.07,0,0,1-1.26.87,5.71,5.71,0,0,1-2.53.78A2.62,2.62,0,0,1,55.69,76a1.6,1.6,0,0,1-.6-1.32,3.86,3.86,0,0,1,1.6-3.07A5.2,5.2,0,0,1,60,70.34a1.94,1.94,0,0,1,1.58.51.94.94,0,0,1,.16.53,1.31,1.31,0,0,1-.18.62,3.16,3.16,0,0,1-1.42,1.15,4.61,4.61,0,0,1-2,.49q-.35,0-.39-.06s0-.08.06-.1a.67.67,0,0,1,.23,0A4.3,4.3,0,0,0,60.07,72.86Z" transform="translate(-1.64 -1.48)" style="fill:#ad8c3c;stroke:#ad8c3c;stroke-miterlimit:10;stroke-width:0.5px"/><path d="M69.19,71.94a17.19,17.19,0,0,0-1.5,2,3,3,0,0,0-.58,1.26c0,.25.14.37.43.37a4.58,4.58,0,0,0,1.77-.86,17.15,17.15,0,0,0,2.46-1.93.24.24,0,0,1,.19-.09c.06,0,.09,0,.09.11A.3.3,0,0,1,72,73a18,18,0,0,1-4.14,3.11,2.8,2.8,0,0,1-.9.25A2,2,0,0,1,65.55,76a1,1,0,0,1-.37-.73A2,2,0,0,1,65.49,74c.69-1,1.24-1.79,1.64-2.46.13-.19.1-.33-.07-.41a1.76,1.76,0,0,0-.65-.11A2,2,0,0,1,66,71a15.66,15.66,0,0,1-2.8,3c-.11.1-.17.1-.19,0a.62.62,0,0,1,.24-.4,13.24,13.24,0,0,0,2.41-2.67.38.38,0,0,1-.15-.16.4.4,0,0,1,0-.19,3.38,3.38,0,0,1,0-.69,2.35,2.35,0,0,1,.32-.83c0-.08.49-.74,1.06-.73a.45.45,0,0,1,.32.1.49.49,0,0,1,.14.4,2.53,2.53,0,0,1-.65,1.51,3.45,3.45,0,0,1-.43.43,14.38,14.38,0,0,1,2.11-.13,1.3,1.3,0,0,1,.78.23,1,1,0,0,1,.27.31.59.59,0,0,1,0,.26A1,1,0,0,1,69.19,71.94Z" transform="translate(-1.64 -1.48)" style="fill:#ad8c3c;stroke:#ad8c3c;stroke-miterlimit:10;stroke-width:0.5px"/><path d="M79.76,72.91c-.16.18-.32.37-.48.58s-.36.5-.61.87a1.77,1.77,0,0,0-.36.92c0,.25.11.38.32.38a2.61,2.61,0,0,0,1.06-.4A17.89,17.89,0,0,0,83,72.74q.21-.21.27-.06v.08a.28.28,0,0,1-.08.15q-3.61,3.41-5.25,3.4a1.09,1.09,0,0,1-.81-.33,1,1,0,0,1-.33-.76,4,4,0,0,1,.38-1.35,7.6,7.6,0,0,1-2,1.82,3.66,3.66,0,0,1-1.69.64,1.54,1.54,0,0,1-1-.37,1.17,1.17,0,0,1-.43-.91,4.48,4.48,0,0,1,1.39-3,5.81,5.81,0,0,1,2.6-1.57,4.18,4.18,0,0,1,1.36-.23,2.51,2.51,0,0,1,1.28.36,1.69,1.69,0,0,1,.79.88,1,1,0,0,1,.9.46.37.37,0,0,1,0,.21.54.54,0,0,1-.15.33Zm-1.54-2.08a2.71,2.71,0,0,0-1,.27,5.66,5.66,0,0,0-2,1.6,5.23,5.23,0,0,0-1.54,2.64c0,.3.12.44.36.44a2.51,2.51,0,0,0,1-.37,9.36,9.36,0,0,0,1.79-1.5l.48-.46.72-.69c.66-.69,1-1.18,1-1.48S78.69,70.83,78.22,70.83Z" transform="translate(-1.64 -1.48)" style="fill:#ad8c3c;stroke:#ad8c3c;stroke-miterlimit:10;stroke-width:0.5px"/><path d="M95.76,71a7.09,7.09,0,0,0-1.44,2.24,5.81,5.81,0,0,0-.58,1.9c0,.37.14.55.43.55A3.35,3.35,0,0,0,95.6,75a18.31,18.31,0,0,0,2.28-1.79c.18-.17.27-.14.27.07a.12.12,0,0,1,0,.08c-.67.59-1.24,1.07-1.7,1.45a10.71,10.71,0,0,1-1.65,1.08,3.57,3.57,0,0,1-1.57.51,1.63,1.63,0,0,1-1.12-.33,1,1,0,0,1-.37-.74A2.26,2.26,0,0,1,92,74.18,11.69,11.69,0,0,1,92.9,73c-.16.12-.4.33-.73.63s-.55.49-.68.59-.19.07-.19-.09.11-.24.34-.42.71-.64,1.46-1.38A8.7,8.7,0,0,1,94.63,71a1.57,1.57,0,0,1,.67-.21.76.76,0,0,1,.39.08C95.78,70.87,95.8,70.93,95.76,71ZM96,69.87a.56.56,0,0,1-.19-.55,1.45,1.45,0,0,1,.38-.75,1.1,1.1,0,0,1,.9-.4.57.57,0,0,1,.36.16.56.56,0,0,1,.14.52,1.17,1.17,0,0,1-.33.69,1.33,1.33,0,0,1-.66.42A.61.61,0,0,1,96,69.87Z" transform="translate(-1.64 -1.48)" style="fill:#ad8c3c;stroke:#ad8c3c;stroke-miterlimit:10;stroke-width:0.5px"/><path d="M102.31,69.07l.74-1.1a6.29,6.29,0,0,1,.46-.6,1.55,1.55,0,0,1,.75-.33,5,5,0,0,1,1.14-.13c.36,0,.54,0,.54.11a4.37,4.37,0,0,1-.9,1,29.13,29.13,0,0,0-2.1,2.29,2.68,2.68,0,0,1,1.87.9c.11.2.13.33,0,.38s-.16,0-.26-.06a1.91,1.91,0,0,0-1.41-.44,6.75,6.75,0,0,0-.94.08,12.87,12.87,0,0,0-2.15,3.57,2.22,2.22,0,0,0-.14.67c0,.49.2.74.61.74a3.5,3.5,0,0,0,1.82-.9,25.66,25.66,0,0,0,2.67-2.29c.14-.16.23-.19.27-.11s0,.18-.1.28a25.71,25.71,0,0,1-3,2.78,4,4,0,0,1-2.25.89c-.94,0-1.41-.5-1.41-1.49a4.58,4.58,0,0,1,.4-1.7l-.38.36q-.17.17-.24.09a.21.21,0,0,1-.08-.14s.06-.11.17-.21a20.19,20.19,0,0,0,2.1-2c-.26.09-.44.1-.53,0a.67.67,0,0,1-.19-.34q-.06-.21.21-.51a1.49,1.49,0,0,1,.77-.45,4.5,4.5,0,0,1,.77-.15Z" transform="translate(-1.64 -1.48)" style="fill:#ad8c3c;stroke:#ad8c3c;stroke-miterlimit:10;stroke-width:0.5px"/><path d="M113.13,73c-.16.18-.31.38-.48.59s-.36.5-.6.86a1.74,1.74,0,0,0-.37.93c0,.25.11.37.32.37a2.61,2.61,0,0,0,1.06-.4,17.89,17.89,0,0,0,3.26-2.52q.21-.21.27-.06v.08a.19.19,0,0,1-.08.15q-3.62,3.4-5.25,3.4a1.09,1.09,0,0,1-.81-.32,1,1,0,0,1-.33-.77A4,4,0,0,1,110.5,74a7.62,7.62,0,0,1-2,1.82,3.78,3.78,0,0,1-1.69.64,1.59,1.59,0,0,1-1-.37,1.19,1.19,0,0,1-.43-.92,4.46,4.46,0,0,1,1.39-3,5.83,5.83,0,0,1,2.6-1.58,4.46,4.46,0,0,1,1.36-.23,2.43,2.43,0,0,1,1.28.37,1.67,1.67,0,0,1,.79.87,1,1,0,0,1,.9.46.41.41,0,0,1,0,.21.58.58,0,0,1-.15.34ZM111.59,71a2.57,2.57,0,0,0-1,.28,5.63,5.63,0,0,0-2,1.59A5.29,5.29,0,0,0,107,75.48c0,.29.12.44.36.44a2.53,2.53,0,0,0,1-.38,9.22,9.22,0,0,0,1.79-1.49l.49-.46.71-.7c.66-.68,1-1.17,1-1.48S112.06,71,111.59,71Z" transform="translate(-1.64 -1.48)" style="fill:#ad8c3c;stroke:#ad8c3c;stroke-miterlimit:10;stroke-width:0.5px"/><text transform="translate(26.56 97.04) rotate(42.84)" style="font-size:8.908720016479492px;fill:#ad8c3c;font-family:MyriadPro-Semibold, Myriad Pro;font-weight:600">w</text><text transform="translate(31.96 101.99) rotate(34.67)" style="font-size:8.908720016479492px;fill:#ad8c3c;font-family:MyriadPro-Semibold, Myriad Pro;font-weight:600">w</text><text transform="translate(38.01 106.12) rotate(26.4)" style="font-size:8.908720016479492px;fill:#ad8c3c;font-family:MyriadPro-Semibold, Myriad Pro;font-weight:600">w</text><text transform="translate(43.96 108.97) rotate(21.48)" style="font-size:8.908720016479492px;fill:#ad8c3c;font-family:MyriadPro-Semibold, Myriad Pro;font-weight:600">.</text><text transform="translate(46.13 109.86) rotate(17.43)" style="font-size:8.908720016479492px;fill:#ad8c3c;font-family:MyriadPro-Semibold, Myriad Pro;font-weight:600">a</text><text transform="translate(50.71 111.24) rotate(13.3)" style="font-size:8.908720016479492px;fill:#ad8c3c;font-family:MyriadPro-Semibold, Myriad Pro;font-weight:600">l</text><text transform="translate(53.14 111.82) rotate(10.02)" style="font-size:8.908720016479492px;fill:#ad8c3c;font-family:MyriadPro-Semibold, Myriad Pro;font-weight:600">t</text><text transform="translate(56.47 112.43) rotate(5.37)" style="font-size:8.908720016479492px;fill:#ad8c3c;font-family:MyriadPro-Semibold, Myriad Pro;font-weight:600">e</text><text transform="translate(61.33 112.85) rotate(0.47)" style="font-size:8.908720016479492px;fill:#ad8c3c;font-family:MyriadPro-Semibold, Myriad Pro;font-weight:600">r</text><text transform="translate(64.75 112.9) rotate(-4.64)" style="font-size:8.908720016479492px;fill:#ad8c3c;font-family:MyriadPro-Semibold, Myriad Pro;font-weight:600">a</text><text transform="translate(69.54 112.46) rotate(-9.43)" style="font-size:8.908720016479492px;fill:#ad8c3c;font-family:MyriadPro-Semibold, Myriad Pro;font-weight:600">-</text><text transform="matrix(0.97, -0.24, 0.24, 0.97, 72.57, 111.98)" style="font-size:8.908720016479492px;fill:#ad8c3c;font-family:MyriadPro-Semibold, Myriad Pro;font-weight:600">v</text><text transform="translate(77.21 110.78) rotate(-17.97)" style="font-size:8.908720016479492px;fill:#ad8c3c;font-family:MyriadPro-Semibold, Myriad Pro;font-weight:600">i</text><text transform="translate(79.56 110.02) rotate(-21.21)" style="font-size:8.908720016479492px;fill:#ad8c3c;font-family:MyriadPro-Semibold, Myriad Pro;font-weight:600">t</text><text transform="translate(82.77 108.79) rotate(-25.86)" style="font-size:8.908720016479492px;fill:#ad8c3c;font-family:MyriadPro-Semibold, Myriad Pro;font-weight:600">a</text><text transform="translate(87.03 106.67) rotate(-29.9)" style="font-size:8.908720016479492px;fill:#ad8c3c;font-family:MyriadPro-Semibold, Myriad Pro;font-weight:600">.</text><text transform="translate(89.11 105.53) rotate(-34.25)" style="font-size:8.908720016479492px;fill:#ad8c3c;font-family:MyriadPro-Semibold, Myriad Pro;font-weight:600">n</text><text transform="matrix(0.77, -0.64, 0.64, 0.77, 93.61, 102.42)" style="font-size:8.908720016479492px;fill:#ad8c3c;font-family:MyriadPro-Semibold, Myriad Pro;font-weight:600">e</text><text transform="translate(97.31 99.26) rotate(-44.64)" style="font-size:8.908720016479492px;fill:#ad8c3c;font-family:MyriadPro-Semibold, Myriad Pro;font-weight:600">t</text><g id="Layer_3" data-name="Layer 3"><path d="M31.73,72.79a3.3,3.3,0,1,1,1.12-4.53A3.3,3.3,0,0,1,31.73,72.79Z" transform="translate(-1.64 -1.48)" style="fill:#fff;opacity:0.357;isolation:isolate"/><path d="M30.47,71.54l-.42-.72a30.9,30.9,0,0,1-1.14,3.53c-.27.51,0-1,.62-3.46l0-.2-1.06.61c-1.52.83-1.93,1-3.24,1.7a5.18,5.18,0,0,1-1.45.58l0,0a3.18,3.18,0,0,1,1-.84c.46-.32.72-.49,1.19-.79,1.7-1.07,1.44-.9,3.17-1.93a28.49,28.49,0,0,1-3.53-1.14c-.51-.27,1,0,3.46.62l.2,0c-.74-1.29-1.45-2.58-2.11-3.89a12.08,12.08,0,0,1-.75-1.69c-.25-.87,1.16,1.12,3.14,4.45.39.65.25.42.42.72a31.06,31.06,0,0,1,1.14-3.54c.28-.51,0,1-.61,3.47l-.06.2,1.06-.61c1.53-.83,1.93-1,3.25-1.71a5.41,5.41,0,0,1,1.44-.57l0,0a8.12,8.12,0,0,1-1.76,1.34c-1,.68-1.23.78-2.29,1.43l-1.32.79a29.62,29.62,0,0,1,3.53,1.14c.51.27-1,0-3.47-.62l-.19,0c.73,1.28,1.44,2.58,2.1,3.89A11,11,0,0,1,33.61,76C33.86,76.86,32.45,74.87,30.47,71.54Z" transform="translate(-1.64 -1.48)" style="fill:#fff"/><g style="opacity:0.72"><path d="M99.14,59a4.39,4.39,0,1,1,5.51-2.85A4.39,4.39,0,0,1,99.14,59Z" transform="translate(-1.64 -1.48)" style="fill:#fff;opacity:0.357;isolation:isolate"/><path d="M99.29,56.66c.31-1,.19-.62.34-1a42,42,0,0,1-4.52,2c-.76.17,1-.91,4-2.43l.24-.12c-.51-.18-1-.34-1.54-.53-2.16-.79-2.72-1-4.55-1.74a7.14,7.14,0,0,1-1.84-1v-.06a4.34,4.34,0,0,1,1.73.28c.72.18,1.12.28,1.83.49,2.57.77,2.17.65,4.71,1.48a40.06,40.06,0,0,1-2-4.52c-.17-.76.91,1,2.43,4l.12.24c.64-1.86,1.31-3.7,2-5.52a14.07,14.07,0,0,1,1-2.23c.65-1-.11,2.14-1.7,7-.31,1-.19.62-.34,1a41.27,41.27,0,0,1,4.53-2c.75-.17-1,.91-4,2.43l-.24.12c.51.18,1,.34,1.54.53,2.16.79,2.72,1,4.55,1.74a7.14,7.14,0,0,1,1.84,1v.06a10.83,10.83,0,0,1-2.89-.58c-1.59-.46-1.85-.55-3.44-1-1.3-.42-.65-.2-1.94-.63a39.43,39.43,0,0,1,2,4.53c.17.75-.91-1-2.43-4l-.12-.24c-.64,1.86-1.31,3.7-2,5.52a14.07,14.07,0,0,1-1,2.23C96.94,64.71,97.7,61.56,99.29,56.66Z" transform="translate(-1.64 -1.48)" style="fill:#fff"/></g><path d="M114.77,92.67a1.87,1.87,0,1,1,2.47.93A1.87,1.87,0,0,1,114.77,92.67Z" transform="translate(-1.64 -1.48)" style="fill:#fff;opacity:0.18;isolation:isolate"/><path d="M115.3,91.89l.47-.21a19.83,19.83,0,0,1-2.1-1c-.3-.21.64.07,2.09.62l.12.05-.3-.7c-.4-1-.5-1.26-.82-2.12a3.44,3.44,0,0,1-.25-.94l0,0a2,2,0,0,1,.45.69c.16.3.25.48.4.79.54,1.13.46,1,1,2.09a17.86,17.86,0,0,1,1-2.09c.21-.3-.07.64-.63,2.09l0,.12c.84-.36,1.69-.71,2.55-1a7,7,0,0,1,1.1-.34c.55-.09-.78.64-3,1.62l-.47.21a19.9,19.9,0,0,1,2.1,1c.3.2-.64-.08-2.09-.63l-.12,0,.3.7c.4,1,.5,1.27.82,2.13a3.37,3.37,0,0,1,.25.93l0,0a5.07,5.07,0,0,1-.71-1.18c-.34-.7-.39-.81-.72-1.52l-.39-.87a18,18,0,0,1-1,2.1c-.21.29.07-.64.63-2.1l0-.11q-1.26.54-2.55,1a7,7,0,0,1-1.1.34C111.77,93.6,113.1,92.87,115.3,91.89Z" transform="translate(-1.64 -1.48)" style="fill:#fff"/></g></svg>