<svg id="Layer_1" data-name="Layer 1" xmlns="http://www.w3.org/2000/svg" xmlns:xlink="http://www.w3.org/1999/xlink" viewBox="0 0 64.65 96"><defs><style>.cls-1,.cls-7{stroke-miterlimit:10;}.cls-1,.cls-3{fill:url(#linear-gradient);}.cls-1{stroke:url(#Новый_образец_градиента);}.cls-2{fill:url(#Безымянный_градиент_4);}.cls-4{opacity:0.72;}.cls-5,.cls-6{fill:#fff;}.cls-5{opacity:0.36;isolation:isolate;}.cls-7{fill:none;stroke-width:0.5px;stroke:url(#Безымянный_градиент_3);}</style><linearGradient id="linear-gradient" x1="3.97" y1="48.68" x2="60.51" y2="48.68" gradientUnits="userSpaceOnUse"><stop offset="0" stop-color="#fdffcf"/><stop offset="0.16" stop-color="#d9b14d"/><stop offset="0.43" stop-color="#f1c458"/><stop offset="0.68" stop-color="#fdffce"/><stop offset="0.85" stop-color="#e4b950"/></linearGradient><linearGradient id="Новый_образец_градиента" x1="3.47" y1="48.68" x2="61.01" y2="48.68" gradientUnits="userSpaceOnUse"><stop offset="0" stop-color="#fff6b7"/><stop offset="1" stop-color="#98761e"/></linearGradient><linearGradient id="Безымянный_градиент_4" x1="-3.65" y1="48.74" x2="136.24" y2="48.74" gradientUnits="userSpaceOnUse"><stop offset="0" stop-color="#eabe54"/><stop offset="0.24" stop-color="#fdffcf"/><stop offset="0.55" stop-color="#f5cc4f"/><stop offset="0.76" stop-color="#fcffbf"/></linearGradient><linearGradient id="Безымянный_градиент_3" x1="266.58" y1="48.75" x2="317.42" y2="48.75" gradientTransform="matrix(-1, 0, 0, 1, 323.82, 0)" gradientUnits="userSpaceOnUse"><stop offset="0" stop-color="#eabe54"/><stop offset="0.22" stop-color="#fdffcf"/><stop offset="0.55" stop-color="#f5cc4f"/><stop offset="0.76" stop-color="#fcffbf"/></linearGradient></defs><title>Иконка Закладка</title><path class="cls-1" d="M56.9,93.46,32.69,75,7.56,93.46a2.76,2.76,0,0,1-3.12-.87A2.89,2.89,0,0,1,4,91V5.92c0-1.23.72-2.23,1.61-2.23H58.91c.89,0,1.6,1,1.6,2.23V91a3,3,0,0,1-1.09,2.19A2.56,2.56,0,0,1,56.9,93.46ZM7.19,88.78,32.76,69.89,57.3,88.78V8.15H7.19Z"/><path class="cls-2" d="M60.51,91.28l-26.22-20-27.1,20V6.19H60.51Z"/><path class="cls-3" d="M56.9,93.46,32.69,75,7.56,93.46a2.76,2.76,0,0,1-3.12-.87A2.89,2.89,0,0,1,4,91V5.92c0-1.23.72-2.23,1.61-2.23H58.91c.89,0,1.6,1,1.6,2.23V91a3,3,0,0,1-1.09,2.19A2.56,2.56,0,0,1,56.9,93.46ZM7.19,88.78,32.76,69.89,57.3,88.78V8.15H7.19Z"/><g class="cls-4"><path class="cls-5" d="M43.44,81.35a2.31,2.31,0,1,1,2.91-1.5A2.31,2.31,0,0,1,43.44,81.35Z"/><path class="cls-6" d="M43.52,80.11c.17-.51.1-.33.18-.56a20.3,20.3,0,0,1-2.39,1c-.4.09.55-.48,2.11-1.28l.13-.07L42.74,79c-1.14-.42-1.44-.54-2.4-.93a3.41,3.41,0,0,1-1-.49v0a2.42,2.42,0,0,1,.91.15l1,.26c1.35.4,1.14.34,2.48.78a22.94,22.94,0,0,1-1-2.39c-.09-.4.48.55,1.28,2.11l.06.13c.34-1,.69-2,1.08-2.91a7.44,7.44,0,0,1,.55-1.18c.34-.53-.06,1.13-.9,3.72-.17.51-.1.32-.18.55a20.25,20.25,0,0,1,2.39-1c.39-.09-.55.48-2.12,1.28l-.12.06.81.28c1.14.42,1.44.54,2.4.92a3.88,3.88,0,0,1,1,.5v0a5.54,5.54,0,0,1-1.52-.3c-.85-.24-1-.29-1.82-.55l-1-.33a20.3,20.3,0,0,1,1,2.39c.09.39-.48-.55-1.28-2.12l-.06-.12c-.34,1-.69,2-1.08,2.91a7.44,7.44,0,0,1-.55,1.18C42.28,84.36,42.68,82.69,43.52,80.11Z"/></g><path class="cls-7" d="M6.88,88.62,32.76,69.89,57,88.78V8.45H6.66Z"/><g class="cls-4"><path class="cls-5" d="M41.56,10.34a2,2,0,1,1,2.49-1.28A2,2,0,0,1,41.56,10.34Z"/><path class="cls-6" d="M41.63,9.28l.15-.48a16.78,16.78,0,0,1-2,.89c-.34.08.47-.41,1.81-1.1l.11-.05c-.23-.08-.47-.15-.7-.24-1-.36-1.23-.46-2.05-.79a3.09,3.09,0,0,1-.83-.42v0a1.9,1.9,0,0,1,.78.12c.32.09.51.13.83.23,1.15.34,1,.29,2.12.67a17.57,17.57,0,0,1-.88-2c-.08-.34.41.47,1.09,1.81l.06.11c.29-.84.59-1.67.92-2.49a7.1,7.1,0,0,1,.46-1c.3-.45,0,1-.76,3.18-.14.43-.09.28-.16.47a19.3,19.3,0,0,1,2-.88c.34-.08-.46.41-1.8,1.09l-.11.06.69.24c1,.35,1.23.45,2.06.78a3.45,3.45,0,0,1,.83.43v0a4.77,4.77,0,0,1-1.31-.27c-.72-.2-.83-.24-1.55-.46l-.88-.29a17.49,17.49,0,0,1,.89,2c.08.34-.41-.46-1.1-1.8l0-.11c-.29.84-.59,1.67-.92,2.49a6.59,6.59,0,0,1-.47,1C40.57,12.91,40.91,11.49,41.63,9.28Z"/></g></svg>